<?xml version="1.0" encoding="UTF-8" standalone="no"?>
<svg
   width="700pt"
   height="700pt"
   version="1.1"
   viewBox="0 0 700 700"
   id="svg167"
   sodipodi:docname="noun-options-menu-445815.svg"
   inkscape:version="1.2.1 (9c6d41e410, 2022-07-14)"
   xmlns:inkscape="http://www.inkscape.org/namespaces/inkscape"
   xmlns:sodipodi="http://sodipodi.sourceforge.net/DTD/sodipodi-0.dtd"
   xmlns="http://www.w3.org/2000/svg"
   xmlns:svg="http://www.w3.org/2000/svg">
  <path d="M 174.83701,5.5116503 H 36.44993 c -17.056601,0 -30.9485084,13.8809947 -30.9485084,30.9375957 l 0.00532,138.400724 c 0,17.06751 13.8809954,30.94851 30.9485074,30.94851 H 174.84233 c 17.0566,0 30.94851,-13.881 30.94851,-30.94851 l -0.005,-138.400724 c 0,-17.051144 -13.88099,-30.9375957 -30.9485,-30.9375957 z" />
  <path d="M 174.83701,249.86545 H 36.44993 c -17.056601,0 -30.9485084,13.87009 -30.9485084,30.94851 v 138.38708 c 0,17.07297 13.8809954,30.94851 30.9485084,30.94851 h 138.38708 c 17.0566,0 30.94851,-13.86462 30.94851,-30.94851 V 280.81396 c 0,-17.06206 -13.88099,-30.94305 -30.94851,-30.94305 z" />
  <path d="M 174.83701,494.21516 H 36.44993 c -17.056601,0 -30.9485084,13.87009 -30.9485084,30.94851 v 138.38708 c 0,17.04024 13.8809954,30.9376 30.9485084,30.9376 h 138.38708 c 17.0566,0 30.94851,-13.87008 30.94851,-30.9376 V 525.16367 c 0,-17.0566 -13.88099,-30.94305 -30.94851,-30.94305 z" />
  <path d="M 419.18672,5.5116503 H 280.81328 c -17.06751,0 -30.94851,13.8809947 -30.94851,30.9375957 l 0.005,138.400724 c 0,17.06751 13.88099,30.94851 30.94851,30.94851 h 138.37344 c 17.0566,0 30.94851,-13.881 30.94851,-30.94851 l -0.005,-138.400724 c 0,-17.051144 -13.87008,-30.9375957 -30.94305,-30.9375957 z" />
  <path d="M 419.18672,249.86545 H 280.81328 c -17.06751,0 -30.94851,13.87009 -30.94851,30.94851 v 138.40072 c 0,17.0566 13.87009,30.94851 30.94851,30.94851 h 138.37344 c 17.0566,0 30.94851,-13.87008 30.94851,-30.94851 V 280.81396 c 0,-17.06206 -13.87008,-30.94305 -30.94305,-30.94305 z" />
  <path d="M 419.18672,494.21516 H 280.81328 c -17.06751,0 -30.94851,13.87009 -30.94851,30.94851 v 138.38708 c 0,17.04024 13.87009,30.9376 30.94851,30.9376 h 138.37344 c 17.0566,0 30.94851,-13.87008 30.94851,-30.9376 V 525.16367 c 0,-17.0566 -13.87008,-30.94305 -30.94305,-30.94305 z" />
  <path d="M 663.55007,5.5116503 H 525.16299 c -17.0566,0 -30.94851,13.8809947 -30.94851,30.9375957 V 174.84997 c 0,17.0566 13.87009,30.94851 30.94851,30.94851 l 138.38708,-0.005 c 17.0566,0 30.94851,-13.88099 30.94851,-30.94851 V 36.457558 C 694.48767,19.406415 680.60667,5.5199631 663.55007,5.5199631 Z" />
  <path d="M 663.55007,249.86545 H 525.16299 c -17.0566,0 -30.94851,13.87009 -30.94851,30.94851 v 138.38708 c 0,17.0566 13.87009,30.94851 30.94851,30.94851 l 138.38708,-0.005 c 17.0566,0 30.94851,-13.87009 30.94851,-30.94851 V 280.8085 c -0.0109,-17.06205 -13.89191,-30.93759 -30.94851,-30.93759 z" />
  <path d="M 663.55007,494.21516 H 525.16299 c -17.0566,0 -30.94851,13.87009 -30.94851,30.94851 v 138.38708 c 0,17.04024 13.87009,30.9376 30.94851,30.9376 h 138.38708 c 17.0566,0 30.94851,-13.87008 30.94851,-30.9376 V 525.16367 c -0.0109,-17.07297 -13.89191,-30.94305 -30.94851,-30.94305 z" />
</svg>
