<?xml version="1.0" encoding="UTF-8" standalone="no"?>
<svg
   width="700pt"
   height="700pt"
   version="1.1"
   viewBox="0 0 700 700"
   id="svg308"
   sodipodi:docname="noun-download-445253.svg"
   inkscape:version="1.2.1 (9c6d41e410, 2022-07-14)"
   xmlns:inkscape="http://www.inkscape.org/namespaces/inkscape"
   xmlns:sodipodi="http://sodipodi.sourceforge.net/DTD/sodipodi-0.dtd"
   xmlns="http://www.w3.org/2000/svg"
   xmlns:svg="http://www.w3.org/2000/svg">
  <path d="M 652.38754,579.21804 H 47.612456 c -24.123437,0 -43.6833883,19.55858 -43.6833883,43.68339 0,24.12344 19.5585783,43.68339 43.6833883,43.68339 H 652.38754 c 24.12344,0 43.68339,-19.55858 43.68339,-43.68339 0,-24.12344 -19.55858,-43.68339 -43.68339,-43.68339 z" />
  <path d="m 331.08962,491.69745 c 5.03728,5.03192 11.75355,7.79995 18.90489,7.79995 7.15133,0 13.86761,-2.76267 18.8939,-7.8053 L 570.35193,290.22858 c 9.83848,-9.82228 13.51852,-19.4034 10.37489,-26.99914 -3.14363,-7.59574 -12.52603,-11.77497 -26.41411,-11.77497 h -83.3636 V 33.415184 H 229.02809 V 251.45447 h -83.3636 c -13.88821,0 -23.26512,4.18432 -26.4141,11.77497 -3.15434,7.59066 0.53108,17.17178 10.35882,26.99914 z" />
</svg>
