<?xml version="1.0" encoding="UTF-8" standalone="no"?>
<svg
   width="700pt"
   height="700pt"
   version="1.1"
   viewBox="0 0 700 700"
   id="svg167"
   sodipodi:docname="noun-levels-445816.svg"
   inkscape:version="1.2.1 (9c6d41e410, 2022-07-14)"
   xmlns:inkscape="http://www.inkscape.org/namespaces/inkscape"
   xmlns:sodipodi="http://sodipodi.sourceforge.net/DTD/sodipodi-0.dtd"
   xmlns="http://www.w3.org/2000/svg"
   xmlns:svg="http://www.w3.org/2000/svg">
  <path d="M 167.20703,146.75907 V 37.150405 c 0,-15.533078 -12.59139,-28.129236 -28.11833,-28.129236 -15.53308,0 -28.12923,12.591383 -28.12923,28.129236 V 146.76317 c 8.9147,-2.67488 18.34041,-4.1563 28.12923,-4.1563 9.78324,0 19.19298,1.48128 28.11833,4.15098 z" />
  <path d="m 209.41248,241.03246 c 0,38.82929 -31.47539,70.31013 -70.31014,70.31013 -38.82928,0 -70.310127,-31.48084 -70.310127,-70.31013 0,-38.82928 31.480847,-70.31013 70.310127,-70.31013 38.83475,0 70.31014,31.48085 70.31014,70.31013" />
  <path d="M 378.13878,361.18294 V 33.633739 c 0,-15.533078 -12.59138,-28.129236 -28.13469,-28.129236 -15.52216,0 -28.12924,12.591383 -28.12924,28.129236 V 361.18294 c 8.92003,-2.67487 18.34041,-4.14565 28.12924,-4.14565 9.78855,0.005 19.2148,1.47596 28.13469,4.15097 z" />
  <path d="m 321.88304,549.72972 v 116.63109 c 0,15.53307 12.5967,28.13469 28.12924,28.13469 15.53253,0 28.13469,-12.59139 28.13469,-28.13469 l -0.005,-116.63109 c -8.92003,2.65891 -18.34041,4.14565 -28.13469,4.14565 -9.78323,0.005 -19.20389,-1.4866 -28.12378,-4.14565 z" />
  <path d="M 589.04326,195.96239 V 33.633739 c 0,-15.533078 -12.58074,-28.129236 -28.13469,-28.129236 -15.51671,0 -28.11287,12.591383 -28.11287,28.129236 V 195.96239 c 8.92003,-2.67488 18.33495,-4.1563 28.11287,-4.1563 9.79387,0 19.22025,1.48661 28.13469,4.1563 z" />
  <path d="m 420.30331,455.45633 c 0,38.82383 -31.47539,70.29922 -70.29922,70.29922 -38.82928,0 -70.30467,-31.47539 -70.30467,-70.29922 0,-38.82929 31.47539,-70.30467 70.30467,-70.30467 38.82383,0 70.29922,31.47538 70.29922,70.30467" />
  <path d="m 631.20778,290.23578 c 0,38.83474 -31.47538,70.31013 -70.31013,70.31013 -38.82928,0 -70.31013,-31.47539 -70.31013,-70.31013 0,-38.82929 31.48085,-70.30468 70.31013,-70.30468 38.83475,0 70.31013,31.47539 70.31013,70.30468" />
  <path d="m 110.97856,335.30585 v 331.05496 c 0,15.53307 12.59139,28.13469 28.12924,28.13469 15.52217,0 28.11832,-12.59139 28.11832,-28.13469 l -0.005,-331.05496 c -8.92003,2.66423 -18.33496,4.14565 -28.11833,4.14565 -9.78323,0.005 -19.20934,-1.47596 -28.12378,-4.14565 z" />
  <path d="m 532.80116,384.50916 v 281.85165 c 0,15.53307 12.59138,28.13469 28.12923,28.13469 15.53785,0 28.12924,-12.59139 28.12924,-28.13469 l -0.005,-281.85165 c -8.91471,2.66424 -18.33495,4.14566 -28.12923,4.14566 -9.78324,0.005 -19.19844,-1.47597 -28.12378,-4.14566 z" />
</svg>
