<?xml version="1.0" encoding="UTF-8" standalone="no"?>
<svg
   width="700pt"
   height="700pt"
   version="1.1"
   viewBox="0 0 700 700"
   id="svg153"
   sodipodi:docname="noun-volume-off-445804.svg"
   inkscape:version="1.2.1 (9c6d41e410, 2022-07-14)"
   xmlns:inkscape="http://www.inkscape.org/namespaces/inkscape"
   xmlns:sodipodi="http://sodipodi.sourceforge.net/DTD/sodipodi-0.dtd"
   xmlns="http://www.w3.org/2000/svg"
   xmlns:svg="http://www.w3.org/2000/svg">
  <path d="m 625.93899,350.17659 54.81191,-54.82274 c 14.35786,-14.34163 14.35786,-37.59115 0,-51.93819 -14.32674,-14.33756 -37.59115,-14.33756 -51.91249,0 l -54.82273,54.82815 -54.82815,-54.82815 c -14.33757,-14.33756 -37.59115,-14.33756 -51.92331,0 -14.35245,14.34163 -14.35245,37.59116 0,51.93819 l 54.82815,54.82274 -54.82815,54.82815 c -14.35785,14.35244 -14.35785,37.59115 -0.0158,51.92736 7.15796,7.15797 16.57164,10.75534 25.96909,10.75534 9.39772,0 18.79084,-3.59751 25.96909,-10.75534 l 54.82815,-54.82815 54.81192,54.82815 c 7.17379,7.15797 16.57164,10.75534 25.9745,10.75534 9.40827,0 18.78002,-3.59751 25.95827,-10.75534 14.35786,-14.35244 14.35786,-37.60197 0,-51.92736 z" />
  <path d="M 362.75901,56.445771 167.39916,213.92642 c -3.12202,2.30845 -8.88531,4.20498 -12.76276,4.21025 l -103.76142,0.34865 c -23.317143,0.0369 -42.4027963,19.16003 -42.4027963,42.48259 v 163.91781 c 0,23.31714 19.0856533,42.42984 42.4027963,42.44066 l 103.76142,0.19545 c 3.87745,0.005 9.55094,2.00743 12.5779,4.448 l 196.17125,171.16639 c 11.53186,10.4278 20.9884,6.22295 20.9884,-9.30793 V 66.519313 c 0,-15.557384 -9.74108,-20.068809 -21.61589,-10.068619 z" />
</svg>
