<?xml version="1.0" encoding="UTF-8" standalone="no"?>
<svg
   width="700pt"
   height="700pt"
   version="1.1"
   viewBox="0 0 700 700"
   id="svg155"
   sodipodi:docname="noun-low-volume-445801.svg"
   inkscape:version="1.2.1 (9c6d41e410, 2022-07-14)"
   xmlns:inkscape="http://www.inkscape.org/namespaces/inkscape"
   xmlns:sodipodi="http://sodipodi.sourceforge.net/DTD/sodipodi-0.dtd"
   xmlns="http://www.w3.org/2000/svg"
   xmlns:svg="http://www.w3.org/2000/svg">
  <path d="M 374.57933,46.253727 174.41871,207.54112 c -3.67744,2.70896 -10.4322,4.93094 -15.00071,4.94873 l -101.683304,0.33864 c -27.405929,0.0595 -49.8325573,22.527 -49.8325573,49.93293 v 159.76653 c 0,27.41658 22.4266283,49.85538 49.8264743,49.88579 l 101.683297,0.19011 c 4.56259,0.0178 11.21636,2.35262 14.78689,5.22203 l 201.11876,175.46183 c 13.53917,12.25008 24.64861,7.30728 24.64861,-10.94306 V 58.059964 c 0,-18.268592 -11.45392,-23.591608 -25.38471,-11.822267 z" />
  <path d="m 497.58664,442.93707 c -10.9788,3.28536 -17.24049,14.83433 -13.98478,25.83032 2.67337,9.01825 10.94305,14.84619 19.89591,14.84619 1.94853,0 3.9626,-0.29111 5.91706,-0.87924 58.15472,-17.30588 98.77846,-71.8303 98.77846,-132.54615 0,-60.74017 -40.62374,-115.24026 -98.77846,-132.54006 -10.97879,-3.25556 -22.53308,2.98819 -25.81358,13.98478 -3.26149,10.99659 3.00613,22.55134 13.98478,25.81359 40.67697,12.09556 69.08667,50.2295 69.08667,92.73759 0,42.51873 -28.4097,80.66499 -69.08667,92.75432 z" />
  <path d="m 506.95514,131.08436 c -11.31141,-1.87142 -22.00535,5.75068 -23.90642,17.05038 -1.90108,11.31141 5.73289,22.00535 17.0443,23.90642 87.20013,14.60864 150.506,89.53466 150.506,178.16896 0,88.5902 -63.31196,163.52307 -150.51817,178.16896 -11.31141,1.90108 -18.95146,12.59457 -17.03213,23.92316 1.69317,10.14111 10.47372,17.31805 20.4419,17.31805 1.15253,0 2.29909,-0.095 3.45753,-0.27921 107.29224,-18.007 185.14971,-110.17275 185.14971,-219.12577 0.0178,-108.99712 -77.8666,-201.14918 -185.14971,-219.12577 z" />
</svg>
