<?xml version="1.0" encoding="utf-8"?>
<svg version="1.1" id="scissors" xmlns="http://www.w3.org/2000/svg" xmlns:xlink="http://www.w3.org/1999/xlink" x="0px" y="0px"
	 viewBox="0 0 700 700" style="enable-background:new 0 0 700 700;" xml:space="preserve">
<style type="text/css">
	.scissor{fill:#3E5B35;}
</style>
<path class="scissor" d="M178,531.4c5.2-17.4,5-35.9-0.7-53.3c-7.7-24.1-24.4-42.3-44.8-52.7l84.7-38l41.9,28.5
	c7,19.2,18,38.8,32.8,57.6c30.8,39,76.3,73.2,128.5,96.6c52.1,23.4,108.1,34.5,157.6,31.4c50.9-3.1,92.8-21.1,117.9-50.5
	c0.9-1,1.5-2.1,2.1-3.1c0.2-0.2,0.3-0.3,0.5-0.5c1-2.2,1.5-4.8,1.5-7v-0.9v-0.3c0-1-0.2-1.9-0.3-2.9c-1.2-5.3-4.8-9.6-9.8-11.9
	l-389-174.4l389-174.2c0.5-0.3,1.2-0.5,1.7-0.9c0.2,0,0.3-0.2,0.3-0.3c0.3-0.2,0.9-0.5,1.2-0.9c0.2-0.2,0.3-0.2,0.3-0.3
	c0.3-0.3,0.7-0.5,1-0.9c0.2-0.2,0.3-0.2,0.3-0.3c0.3-0.3,0.7-0.7,0.9-1c0.2-0.2,0.2-0.3,0.3-0.3c0.3-0.3,0.5-0.9,0.9-1.2
	c0-0.2,0.2-0.2,0.2-0.3c0.3-0.5,0.7-1,0.9-1.5c0,0,0-0.2,0.2-0.2c0.2-0.5,0.5-1,0.7-1.5c0-0.2,0.2-0.3,0.2-0.5
	c0.2-0.3,0.3-0.9,0.3-1.2v-0.3v-0.3c0.2-0.5,0.2-0.9,0.2-1.4v-0.5v-1.5v-0.2c0-0.7,0-1.2-0.2-1.9v-0.2c0-0.5-0.2-1-0.3-1.7
	c0-0.2-0.2-0.3-0.2-0.5c-0.2-0.3-0.2-0.9-0.3-1.2c0-0.2-0.2-0.5-0.3-0.7c0-0.2-0.2-0.3-0.2-0.5V153c-0.7-1.4-1.5-2.8-2.6-3.9
	c-25.1-29.4-67-47.4-117.9-50.5C528,95.4,472,106.6,419.9,130c-52.1,23.4-97.8,57.7-128.5,96.6c-14.9,18.9-25.9,38.7-33,58.1
	c-25.9,17.7-59.1,20.6-87.8,7.7c-16-7.2-20.8-27.5-9.8-41.2c4.8-6,8.9-12.7,12.4-20.1c10-22.5,10.7-47.4,1.5-70.5
	c-8.1-20.3-23.2-37.1-42.6-46.9c-24.6-12.5-52.7-13.4-77.8-2.4c-19.4,8.4-35.2,23.5-44.7,42.4c-6.5,13.1-9.5,26.8-9.5,40.2
	c0,34.5,19.9,67.7,53.4,82.6c0.2,0,0.3,0.2,0.5,0.2c1.2,1.2,2.8,2.1,4.3,2.8L162,349.9L58.4,420.4c-1.2,0.5-2.1,1.2-3.1,1.9
	c-0.7,0.2-1.2,0.5-1.9,0.7C19.9,437.9,0,471.1,0,505.6c0,15.5,3.9,31.1,12.5,45.7c9.1,15.6,22.9,28.2,39.2,35.9
	c24.4,11.5,51.6,11.7,75.8,0.9C152.2,577.4,170.3,557,178,531.4L178,531.4z M75.3,229.6c-19.6-8.8-28.4-31.8-19.6-51.6
	c4.3-9.5,12-16.8,21.7-20.4c9.8-3.8,20.3-3.4,29.7,0.9c9.5,4.3,16.8,12,20.4,21.7c1.7,4.5,2.6,9.3,2.6,13.9c0,5.3-1.2,10.8-3.4,16
	C117.9,229.6,94.8,238.4,75.3,229.6L75.3,229.6z M77.3,542c-9.8-3.8-17.4-11-21.7-20.4c-8.8-19.6,0-42.6,19.6-51.6
	c19.6-8.8,42.6,0,51.6,19.6c4.3,9.5,4.5,20.1,0.9,29.7c-3.8,9.8-11,17.4-20.4,21.7S86.9,545.8,77.3,542L77.3,542z"/>
</svg>
