<?xml version="1.0" encoding="UTF-8" standalone="no"?>
<svg
   width="700pt"
   height="700pt"
   version="1.1"
   viewBox="0 0 700 700"
   id="svg157"
   sodipodi:docname="noun-collapsing-446254.svg"
   inkscape:version="1.2.1 (9c6d41e410, 2022-07-14)"
   xmlns:inkscape="http://www.inkscape.org/namespaces/inkscape"
   xmlns:sodipodi="http://sodipodi.sourceforge.net/DTD/sodipodi-0.dtd"
   xmlns="http://www.w3.org/2000/svg"
   xmlns:svg="http://www.w3.org/2000/svg">
  <path d="m 105.11909,279.32076 c -5.903282,5.91387 -8.122278,11.68438 -6.243036,16.23883 1.895146,4.58137 7.559506,7.10302 15.904526,7.10302 h 171.54813 c 4.27872,0 8.31865,-1.67227 11.37643,-4.72474 3.03128,-3.04188 4.71944,-7.08698 4.70341,-11.37113 l 0.0159,-171.53455 c 0,-8.37179 -2.51105,-14.01957 -7.11362,-15.915392 -4.56546,-1.879242 -10.31463,0.345067 -16.22389,6.226992 L 239.63889,144.79185 102.59608,7.7354453 7.5236473,102.81331 144.56646,239.86971 Z" />
  <path d="m 413.64208,302.655 h 171.56173 c 8.36635,0 14.01005,-2.52165 15.92083,-7.10302 1.86334,-4.56546 -0.33444,-10.33597 -6.24303,-16.24971 L 555.42268,239.84335 692.46549,102.80054 597.39306,7.7389787 460.35025,144.79538 420.87502,105.32015 c -5.88195,-5.876645 -11.68438,-8.106241 -16.23341,-6.211098 -4.58666,1.879238 -7.10831,7.527708 -7.10831,15.899088 v 171.53454 c 0,4.29475 1.69876,8.32395 4.71944,11.37643 3.07368,3.05778 7.10832,4.73004 11.38173,4.73004 z" />
  <path d="M 286.7375,397.36457 H 115.18937 c -8.35575,0 -14.01006,2.49501 -15.904525,7.09242 -1.879242,4.54956 0.33444,10.32536 6.232295,16.24971 L 144.97063,460.17649 7.9142288,597.19212 102.9921,692.26456 240.03491,555.20815 l 39.45892,39.45893 c 5.89784,5.89784 11.67365,8.10624 16.24971,6.23229 4.57607,-1.90044 7.08698,-7.5436 7.09242,-15.91539 V 413.43585 c -0.005,-4.28402 -1.67227,-8.31866 -4.71945,-11.34463 -3.05777,-3.06308 -7.10301,-4.72475 -11.38173,-4.72475 z" />
  <path d="m 594.85279,420.29111 c 5.90328,-5.89784 8.10624,-11.67364 6.25364,-16.24971 -1.90045,-4.56547 -7.56481,-7.09241 -15.9154,-7.09241 H 413.62931 c -4.28402,0 -8.32395,1.66696 -11.37113,4.72474 -3.03658,3.03128 -4.71944,7.09241 -4.70871,11.36053 l -0.005,171.54813 c 0,8.35575 2.52164,14.01006 7.10301,15.9154 4.56547,1.87924 10.32007,-0.33444 16.2334,-6.2323 l 39.4698,-39.4698 137.06999,137.02922 95.05612,-95.07243 L 555.4068,459.72326 Z" />
</svg>
