<?xml version="1.0" encoding="UTF-8" standalone="no"?>
<svg
   width="700pt"
   height="700pt"
   version="1.1"
   viewBox="0 0 700 700"
   id="svg157"
   sodipodi:docname="noun-expand-screen-446250.svg"
   inkscape:version="1.2.1 (9c6d41e410, 2022-07-14)"
   xmlns:inkscape="http://www.inkscape.org/namespaces/inkscape"
   xmlns:sodipodi="http://sodipodi.sourceforge.net/DTD/sodipodi-0.dtd"
   xmlns="http://www.w3.org/2000/svg"
   xmlns:svg="http://www.w3.org/2000/svg">
  <path d="m 14.774606,215.11466 c 4.650265,1.91642 10.51613,-0.35035 16.535966,-6.34898 L 71.506234,168.57002 211.14057,308.21794 308.00942,211.34909 168.37509,71.714756 208.57075,31.519094 c 6.01984,-6.025136 8.27057,-11.896301 6.35958,-16.546838 -1.93232,-4.666165 -7.70795,-7.2301364 -16.21253,-7.2301364 H 23.926872 c -4.368822,0 -8.482973,1.7040145 -11.588359,4.8148364 -3.0947858,3.100086 -4.8095362,7.208937 -4.7935003,11.583059 L 7.5290856,198.91735 c 0,8.53067 2.5586714,14.28551 7.2354364,16.2071 z" />
  <path d="M 687.6558,12.547715 C 684.55028,9.4421931 680.44157,7.7328786 676.07275,7.7328786 l -174.79093,-0.0053 c -8.52537,0 -14.27464,2.5639714 -16.2234,7.2301364 -1.90039,4.650265 0.34505,10.53203 6.35957,16.552274 l 40.19023,40.195662 -139.60715,139.647919 96.86885,96.85391 139.62074,-139.63433 40.21197,40.21197 c 5.99864,5.9879 11.89631,8.26526 16.53597,6.33308 4.66617,-1.91099 7.23014,-7.67072 7.23014,-16.19623 V 24.158215 c 0,-4.384858 -1.71462,-8.488272 -4.80954,-11.599094 z" />
  <path d="M 211.55369,391.76738 71.919361,531.4153 31.7237,491.21964 c -6.019837,-6.00394 -11.901602,-8.26526 -16.546839,-6.34898 -4.666165,1.93232 -7.2301363,7.68662 -7.2354363,16.20166 v 174.81811 c 0.0053,4.35292 1.7146145,8.47237 4.8095363,11.56716 3.110822,3.11082 7.235437,4.81483 11.588359,4.81483 h 174.79093 c 8.51477,0 14.2692,-2.54277 16.20166,-7.21953 1.91098,-4.62893 -0.33443,-10.52673 -6.35958,-16.54684 L 168.77666,628.29951 308.411,488.65159 Z" />
  <path d="m 685.23683,484.44924 c -4.63966,-1.91642 -10.53203,0.34506 -16.54683,6.35428 l -40.20654,40.20654 -139.64792,-139.62074 -96.83216,96.86885 139.63433,139.62074 -40.19566,40.19566 c -6.01984,6.01984 -8.26527,11.89631 -6.37548,16.56723 1.94292,4.63436 7.70795,7.20893 16.21253,7.20893 h 174.80452 c 4.36882,0 8.47767,-1.69871 11.58306,-4.81483 3.09478,-3.08419 4.80953,-7.21424 4.80423,-11.57776 l -0.0109,-174.79093 c -0.005,-8.50417 -2.57987,-14.2692 -7.23014,-16.20709 z" />
</svg>
