<?xml version="1.0" encoding="UTF-8" standalone="no"?>
<svg
   width="700pt"
   height="700pt"
   version="1.1"
   viewBox="0 0 700 700"
   id="svg151"
   sodipodi:docname="noun-home-445808.svg"
   inkscape:version="1.2.1 (9c6d41e410, 2022-07-14)"
   xmlns:inkscape="http://www.inkscape.org/namespaces/inkscape"
   xmlns:sodipodi="http://sodipodi.sourceforge.net/DTD/sodipodi-0.dtd"
   xmlns="http://www.w3.org/2000/svg"
   xmlns:svg="http://www.w3.org/2000/svg">
  <path d="M 685.58646,282.88882 397.53538,54.070777 C 371.38629,33.299995 328.49643,33.145826 302.20535,53.74325 L 14.451784,279.13984 c -3.285811,2.57258 -5.9746932,8.08775 -5.9746932,12.26097 v 32.52543 c 0,4.17322 3.4178002,7.61226 7.5964342,7.6439 l 54.648565,0.38035 c 4.178499,0.0317 7.643902,3.47068 7.702053,7.6439 l 0.0898,261.0987 c 0,33.39635 21.959497,60.72333 48.822627,60.72333 26.8469,0 128.04614,0.19017 128.04614,0.19017 8.34659,-0.0581 15.17746,-6.93608 15.17746,-15.28834 V 481.15543 c 0,-16.69884 13.66146,-30.35896 30.35896,-30.35896 h 101.76993 c 16.69885,0 30.35896,13.66147 30.35896,30.35896 v 165.14929 c 0,8.35186 6.83046,15.2302 15.17746,15.28835 0,0 96.84601,-0.19017 123.69833,-0.19017 26.86177,0 48.82263,-27.31617 48.82263,-60.72333 l 0.005,-261.07165 c 0,-4.17323 3.4178,-7.61226 7.58588,-7.64391 l 55.59927,-0.38563 c 4.17322,-0.0316 7.58589,-3.47068 7.58589,-7.6439 V 295.2078 c 0.0108,-4.17849 -2.67306,-9.71476 -5.93764,-12.30857 z m -335.58627,-11.5637 c -29.33929,0 -53.12717,-23.79329 -53.12717,-53.13257 0,-29.32982 23.78788,-53.12717 53.12717,-53.12717 29.33929,0 53.12717,23.79329 53.12717,53.12717 0,29.34469 -23.78788,53.13257 -53.12717,53.13257 z" />
</svg>
