<?xml version="1.0" encoding="UTF-8" standalone="no"?>
<svg
   width="700pt"
   height="700pt"
   version="1.1"
   viewBox="0 0 700 700"
   id="svg877"
   sodipodi:docname="noun-lines-445260.svg"
   inkscape:version="1.2.1 (9c6d41e410, 2022-07-14)"
   xmlns:inkscape="http://www.inkscape.org/namespaces/inkscape"
   xmlns:sodipodi="http://sodipodi.sourceforge.net/DTD/sodipodi-0.dtd"
   xmlns="http://www.w3.org/2000/svg"
   xmlns:svg="http://www.w3.org/2000/svg">
  <path d="m 65.55186,166.13659 h 568.91011 c 35.32963,0 63.93481,-28.61624 63.93481,-63.93481 0,-35.313049 -28.60518,-63.923762 -63.93481,-63.923762 H 65.55186 c -35.318575,0 -63.934818,28.616243 -63.934818,63.923762 0,35.31857 28.616243,63.93481 63.934818,63.93481 z" />
  <path d="M 634.44814,286.05412 H 65.538035 c -35.318575,0 -63.934818,28.61625 -63.934818,63.92929 0,35.31857 28.616243,63.93482 63.934818,63.93482 H 634.44814 c 35.32963,0 63.93482,-28.61625 63.93482,-63.93482 -0.006,-35.31304 -28.61072,-63.92929 -63.94035,-63.92929 z" />
  <path d="M 634.44814,533.85235 H 65.538035 c -35.318575,0 -63.934818,28.60518 -63.934818,63.93481 0,35.31305 28.616243,63.93482 63.934818,63.93482 H 634.44814 c 35.32963,0 63.93482,-28.62177 63.93482,-63.93482 -0.006,-35.32963 -28.61072,-63.93481 -63.94035,-63.93481 z" />
</svg>
