<?xml version="1.0" encoding="UTF-8" standalone="no"?>
<svg
   width="700pt"
   height="700pt"
   version="1.1"
   viewBox="0 0 700 700"
   id="svg151"
   sodipodi:docname="noun-information-button-446237.svg"
   inkscape:version="1.2.1 (9c6d41e410, 2022-07-14)"
   xmlns:inkscape="http://www.inkscape.org/namespaces/inkscape"
   xmlns:sodipodi="http://sodipodi.sourceforge.net/DTD/sodipodi-0.dtd"
   xmlns="http://www.w3.org/2000/svg"
   xmlns:svg="http://www.w3.org/2000/svg">
  <path d="m 350.00001,4.5678 c -190.78277,0 -345.4322121,154.64945 -345.4322121,345.43221 0,190.78275 154.6494421,345.43219 345.4322121,345.43219 190.78274,0 345.43219,-154.64944 345.43219,-345.43219 C 695.4322,159.21725 540.78275,4.5678 350.00001,4.5678 Z m -1.93306,136.9858 c 33.02168,0 44.29208,26.31179 43.40383,45.6368 0,27.22199 -19.03029,46.47708 -46.0165,46.47708 -26.93823,0 -46.04393,-21.03846 -46.04393,-45.58883 -0.006,-24.58873 17.3758,-46.52505 48.6566,-46.52505 z m 77.08346,397.69939 H 277.19029 V 470.1693 h 37.93723 l 0.23024,-139.91376 h -40.5074 v -69.0837 h 109.70899 l -0.34804,208.98648 h 40.93508 z" />
</svg>
